<!DOCTYPE svg PUBLIC "-//W3C//DTD SVG 1.1//EN" "http://www.w3.org/Graphics/SVG/1.1/DTD/svg11.dtd">
<!-- Uploaded to: SVG Repo, www.svgrepo.com, Transformed by: SVG Repo Mixer Tools -->
<svg fill="#7cd76a" version="1.1" id="Capa_1" xmlns="http://www.w3.org/2000/svg" xmlns:xlink="http://www.w3.org/1999/xlink" width="800px" height="800px" viewBox="0 0 569.179 569.18" xml:space="preserve">
<g id="SVGRepo_bgCarrier" stroke-width="0"/>
<g id="SVGRepo_tracerCarrier" stroke-linecap="round" stroke-linejoin="round"/>
<g id="SVGRepo_iconCarrier"> <g> <g> <path d="M99.758,569.18h369.639c0.845,0,1.53-0.685,1.53-1.529c0-24.26-94.747-38.759-186.348-38.759 c-0.119,0-0.242,0.004-0.361,0.004c-1.315-10.521-1.974-21.044-0.96-31.311c0.881-8.956,3.822-17.546,6.668-25.856 c2.784-8.134,5.664-16.543,6.631-25.321c0.942-8.538,0.187-17.399-2.246-26.338c-0.605-2.228-1.325-4.495-2.133-6.75l0.585-0.483 c0.829-0.688,1.655-1.377,2.509-2.035c2.283-1.757,4.963-3.672,7.745-3.452c2.114,0.145,4.177,1.922,5.019,4.327 c0.33,0.942,0.894,3.317-0.988,5.037c-1.711,1.566-5.028,1.863-6.35,0.511c-0.539-0.554-0.799-1.334-0.774-2.322 c0.009-0.396-0.281-0.731-0.677-0.777c-0.392-0.056-0.756,0.211-0.838,0.6c-0.31,1.444-0.037,2.745,0.786,3.761 c1.077,1.331,3.026,2.093,5.353,2.093c3.733,0,7.72-2.01,8.121-5.856c0.287-2.732-0.648-5.499-2.632-7.791 c-2.185-2.527-5.346-4.115-8.623-4.244c-1.83,0-4.021,1.147-6.145,2.259c-2.075,1.083-4.271,2.188-5.545,1.974 c-1.401-3.369-3.032-6.724-4.612-9.967c-3.308-6.796-6.726-13.822-8.191-21.307c-2.038-10.423,1.857-24.354,11.904-29.63 c0.823-0.432,1.939-0.658,3.231-0.658c3.721,0,7.53,1.766,8.494,3.938c0.532,1.205,0.175,2.512-1.067,3.886 c-1.218,1.344-2.935,2.179-4.48,2.179c-0.661,0-1.569-0.156-2.151-0.899c-0.59-0.759-0.7-1.968-0.314-3.497 c0.085-0.347-0.077-0.704-0.392-0.866c-0.312-0.162-0.701-0.089-0.934,0.184c-1.285,1.502-1.595,3.194-0.869,4.771 c0.998,2.166,3.933,3.804,6.827,3.804c1.882,0,3.521-0.691,4.617-1.949c3.238-3.709,2.864-6.922,1.978-8.966 c-1.834-4.223-7.259-7.062-12.015-7.702c9.896-11.83,17.348-21.978,23.397-31.846c6.563-10.71,13.106-22.157,14.73-33.979 c0.102-0.729,0.193-1.515,0.294-2.341c0.851-7.133,2.008-16.913,10.536-16.524c2.285,0.11,4.728,1.989,5.336,4.107 c0.417,1.457-0.119,2.748-1.545,3.736c-0.581,0.4-1.34,0.624-2.142,0.624c-1.402,0-2.917-0.695-2.944-2.212 c0.013-0.269,0.052-0.554,0.116-0.851c0.089-0.407-0.162-0.811-0.565-0.909c-0.41-0.101-0.814,0.144-0.922,0.544 c-0.109,0.41-0.165,0.811-0.162,1.196c-0.052,1.383,0.396,2.61,1.292,3.543c1.863,1.94,5.59,2.105,8.014,0.306 c2.359-1.75,3.231-4.367,2.384-7.172c-1.086-3.614-4.719-6.595-8.265-6.784c-2.537-0.128-5.04,0.331-7.457,0.78 c-0.548,0.104-1.096,0.205-1.646,0.3c-0.594,0-1.417-2.451-2.442-7.28c-0.29-1.365-0.538-2.543-0.786-3.268 c-2.788-8.161-7.371-16.414-14.422-25.964c-6.441-8.724-11.573-15.178-16.641-20.928c-0.719-0.817-1.588-1.704-2.512-2.65 c-4.036-4.122-9.061-9.253-7.504-14.428c0.652-2.167,2.843-4.296,4.419-4.296c0.918,0,1.57,0.765,1.931,2.271 c0.346,1.42,0.15,3.125-0.443,3.88c-0.232,0.297-0.44,0.331-0.575,0.331c-0.248,0-0.79-0.135-1.658-1.041 c-0.27-0.279-0.701-0.315-1.007-0.086c-0.31,0.229-0.401,0.649-0.215,0.985c0.655,1.181,1.668,1.833,2.853,1.833 c1.242,0,2.619-0.731,3.687-1.958c1.084-1.245,1.622-2.745,1.444-4.012c-0.603-4.305-3.311-4.948-4.868-4.948 c-3.354,0-7.521,2.876-9.376,5.643c-10.765-15.444-19.382-31.619-26.325-49.401c-1-2.564-1.854-8.516,0.006-11.242 c0.96-1.401,2.54-1.674,4.779-0.894c1.402,0.493,3.018,1.423,2.739,3.066c-0.242,1.407-1.882,2.846-3.252,2.846 c-0.799,0-1.344-0.514-1.625-1.527c-0.107-0.379-0.459-0.618-0.869-0.551c-0.386,0.067-0.661,0.417-0.633,0.808 c0.15,2.114,1.579,3.43,3.733,3.43c2.323,0,5.089-1.652,5.499-4.112c0.358-2.13,0.024-3.816-0.991-5.019 c-1.044-1.236-2.794-1.888-5.059-1.888c-2.742,0-5.74,0.937-7.727,2.004c-4.825-21.803-5.315-43.207-1.371-60.383 c0.78-3.4,3.409-8.189,6.818-8.189c1.104,0,2.255,0.508,3.415,1.509c0.609,0.523,0.56,0.937,0.447,1.239 c-0.361,0.973-2.071,2.004-3.329,2.004c-0.147,0-0.278-0.016-0.389-0.046c-0.187-0.374-0.275-0.872-0.257-1.463 c0.009-0.385-0.267-0.719-0.649-0.777c-0.398-0.067-0.75,0.181-0.851,0.551c-0.471,1.695,0.165,2.5,0.691,2.864 c1.249,1.656,4.226,1.353,5.799-0.496c0.881-1.041,1.242-2.369,1.016-3.746c-0.475-2.754-1.757-4.091-3.923-4.091 c-0.994,0-2.078,0.281-3.124,0.554c-1.27,0.331-2.638,0.658-3.645,0.499c3.302-14.899,9-29.447,16.943-43.247 c0.202-0.355,0.092-0.805-0.251-1.025s-0.802-0.131-1.038,0.202c-4.057,5.731-7.433,11.708-10.239,16.956 c-0.743-1.083-1.937-1.757-3.262-1.757c-1.377,0-2.598,0.756-3.342,2.075c-0.477,0.839-0.45,1.833,0.071,2.727 c0.633,1.086,1.842,1.692,2.803,1.42c0.474-0.049,0.869-0.395,1.172-1.034c0.003-0.009,0.009-0.021,0.012-0.031 c0.006-0.012,0.012-0.031,0.021-0.046c0.009-0.018,0.019-0.04,0.028-0.061c0.015-0.037,0.027-0.067,0.03-0.07l0,0 c0.003-0.006,0.006-0.012,0.006-0.016c0.15-0.389-0.043-0.829-0.432-0.985c-0.355-0.134-0.75,0-0.939,0.318 c-0.229-0.768-0.3-2.126,0.089-2.58c0.493,0.037,1.659,1.906,1.833,2.543c0.539,2.191-0.783,4.526-1.952,6.585 c-0.224,0.395-0.441,0.777-0.64,1.151c-6.735,12.598-10.762,29.339-12.301,51.151c-0.459-0.187-0.899-0.337-1.343-0.456 c-1.307-0.364-2.871-0.566-4.406-0.566c-3.837,0-6.858,1.16-8.287,3.182c-1.123,1.588-1.264,3.605-0.419,5.989 c0.658,1.854,2.396,2.962,4.645,2.962c1.891,0,3.642-0.835,4.357-2.081c0.526-0.918,0.484-1.995-0.122-3.032 c-0.193-0.337-0.615-0.471-0.958-0.318c-0.355,0.15-0.542,0.539-0.44,0.909c0.153,0.554,0.263,1.31-0.08,1.766 c-0.315,0.413-0.942,0.475-1.289,0.475c-1.64,0-3.742-1.227-3.999-2.812c-0.107-0.673,0.101-1.325,0.618-1.934 c1.236-1.454,3.645-2.154,5.055-1.953c3.186,0.456,5.251,3.847,6.053,6.61c0.741,2.543,0.731,5.474,0.726,8.305 c-0.003,1.512-0.009,3.072,0.101,4.544c0.453,5.979,1.273,12.01,2.436,17.925c2.255,11.487,5.826,22.742,10.615,33.467 c-3.639,0.45-8.03,2.075-10.04,4.881c-1.163,1.622-1.472,3.464-0.921,5.48c1.297,4.755,4.59,5.269,5.942,5.269 c2.032,0,4.085-1.074,5-2.613c0.606-1.019,0.658-2.124,0.147-3.118c-0.232-0.661-0.891-1.291-2.004-1.921 c-0.012-0.006-0.024-0.013-0.037-0.021c-0.367-0.205-0.835-0.077-1.041,0.293c-0.205,0.367-0.073,0.833,0.294,1.041 c0.597,0.333,1.034,0.704,1.303,1.099c0.006,0.037,0.013,0.073,0.025,0.11c-0.318,0.431-1.763,0.894-3.531,0.894 c-0.762,0-1.451-0.092-1.94-0.257c-1.172-0.401-2.534-1.095-2.362-2.118c0.312-1.87,4.777-4.443,7.705-4.443l0.248,0.006 c3.464,0.217,5.407,3.926,6.964,6.91l0.3,0.572c2.766,5.248,6.056,10.713,10.355,17.203c6.049,9.131,12.714,18.036,19.159,26.646 c1.506,2.011,3.011,4.024,4.511,6.041c-5.875-0.272-12.017,5.93-13.547,11.408c-1.093,3.908,0.107,7.258,3.286,9.186 c0.894,0.542,1.968,0.817,3.188,0.817c3.326,0,7.494-2.218,8.097-5.184c0.242-1.193,0.05-3.442-3.94-5.138 c-0.007-0.003-0.013-0.006-0.021-0.009c-0.383-0.159-0.836,0.016-1.004,0.407c-0.165,0.389,0.019,0.838,0.407,1.003 c1.578,0.667,1.462,2.158,1.34,2.767c-0.324,1.597-1.915,3.21-3.675,2.729c-1.649-0.459-2.877-1.659-3.372-3.292 c-0.526-1.75-0.102-3.712,1.113-5.117c2.121-2.448,4.392-3.69,6.748-3.69c5.823,0,11.104,7.515,13.105,10.744 c12.378,20.098,11.068,42.289-3.892,65.983c-1.632-7.053-9.235-13.427-16.607-13.427c-3.568,0-6.659,1.49-8.941,4.309 c-2.583,3.188-2.225,5.743-1.469,7.331c1.42,2.978,5.208,4.584,8.051,4.584c1.579,0,2.85-0.453,3.676-1.312 c0.682-0.707,1.019-1.671,0.979-2.785c-0.015-0.376-0.3-0.685-0.67-0.73c-0.395-0.046-0.726,0.187-0.829,0.544 c-0.496,1.714-2.326,2.479-3.92,2.479c-1.31,0-2.913-0.544-3.482-2.056c-0.594-1.723-0.475-3.339,0.349-4.676 c0.881-1.429,2.534-2.405,4.529-2.678c3.405-0.453,6.245,0.799,8.375,3.553c2.867,3.706,4.042,9.862,2.8,14.639 c-0.915,3.504-4.792,7.525-8.216,11.074c-1.401,1.457-2.729,2.834-3.736,4.061c-3.954,4.823-8.146,9.566-12.198,14.153 l-2.573,2.919c-6.046,6.869-14.079,17.421-14.942,30.48c-3.354-1.478-7.258-2.286-11.123-2.286c-4.997,0-9.639,1.362-13.072,3.831 c-3.871,2.788-5.961,7.736-5.322,12.604c0.588,4.477,3.296,7.947,7.521,9.547c3.715,0.897,8.55-1.486,10.202-4.908 c1.05-2.172,0.765-4.461-0.811-6.447c-0.251-0.318-0.701-0.382-1.028-0.156c-0.331,0.227-0.435,0.671-0.232,1.017 c0.74,1.275,0.795,2.481,0.162,3.58c-0.9,1.561-3.161,2.692-5.376,2.692c-1.007,0-1.928-0.232-2.662-0.676 c-3.755-2.259-3.66-5.361-3.268-7.011c0.826-3.482,4.189-6.318,7.821-6.598c8.871-0.685,15.875,3.431,18.754,11.053 c4.336,11.466,6.738,23.422,7.99,31.43l0.56,3.528c1.601,10.055,3.256,20.45,2.736,30.159c-0.211,3.88-1.564,7.359-2.996,11.044 l-0.554,1.432c-2.714,7.096-4.483,14.303-5.263,21.417c-1.72,15.683,1.539,31.457,4.572,43.449 c0.147,0.581,0.309,1.153,0.459,1.731C180,531.004,98.253,545.104,98.253,567.638C98.228,568.498,98.914,569.18,99.758,569.18z"/> </g> </g> </g>
</svg>